<svg width="441" height="37" viewBox="0 0 441 37" fill="none" xmlns="http://www.w3.org/2000/svg">
<path d="M9.41974 35.9999H0.351562L12.13 1.0908H23.3629L35.1413 35.9999H26.0732L17.8743 9.88625H17.6016L9.41974 35.9999ZM8.20952 22.2613H27.1641V28.6703H8.20952V22.2613Z" fill="white"/>
<path d="M56.6911 11.5567C56.5774 10.3067 56.0717 9.33512 55.174 8.64194C54.2876 7.93739 53.0206 7.58512 51.3729 7.58512C50.282 7.58512 49.3729 7.72716 48.6456 8.01125C47.9183 8.29534 47.3729 8.68739 47.0092 9.18739C46.6456 9.67603 46.4581 10.2385 46.4467 10.8749C46.424 11.3976 46.5263 11.8578 46.7536 12.2556C46.9922 12.6533 47.3331 13.0056 47.7763 13.3124C48.2308 13.6078 48.7763 13.8692 49.4126 14.0965C50.049 14.3238 50.7649 14.5226 51.5604 14.6931L54.5604 15.3749C56.2876 15.7499 57.8104 16.2499 59.1286 16.8749C60.4581 17.4999 61.5717 18.2442 62.4695 19.1078C63.3786 19.9715 64.0661 20.9658 64.532 22.0908C64.9979 23.2158 65.2365 24.4772 65.2479 25.8749C65.2365 28.0794 64.6797 29.9715 63.5774 31.551C62.4751 33.1306 60.8899 34.3408 58.8217 35.1817C56.7649 36.0226 54.282 36.4431 51.3729 36.4431C48.4524 36.4431 45.907 36.0056 43.7365 35.1306C41.5661 34.2556 39.8786 32.926 38.674 31.1419C37.4695 29.3578 36.8501 27.1022 36.8161 24.3749H44.8956C44.9638 25.4999 45.2649 26.4374 45.799 27.1874C46.3331 27.9374 47.0661 28.5056 47.9979 28.8919C48.9411 29.2783 50.032 29.4715 51.2706 29.4715C52.407 29.4715 53.3729 29.3181 54.1683 29.0113C54.9751 28.7044 55.5945 28.2783 56.0263 27.7328C56.4581 27.1874 56.6797 26.5624 56.6911 25.8578C56.6797 25.1988 56.4751 24.6363 56.0774 24.1703C55.6797 23.6931 55.0661 23.284 54.2365 22.9431C53.4183 22.5908 52.3729 22.2669 51.1001 21.9715L47.4524 21.1192C44.4297 20.426 42.049 19.3067 40.3104 17.7613C38.5717 16.2044 37.7081 14.1022 37.7195 11.4544C37.7081 9.29534 38.2876 7.4033 39.4581 5.7783C40.6286 4.1533 42.2479 2.88625 44.3161 1.97716C46.3842 1.06807 48.7422 0.613525 51.3899 0.613525C54.0945 0.613525 56.4411 1.07375 58.4297 1.99421C60.4297 2.9033 61.9808 4.18171 63.0831 5.82944C64.1854 7.47716 64.7479 9.38625 64.7706 11.5567H56.6911Z" fill="white"/>
<path d="M69.5092 35.9999V1.0908H77.9467V15.1022H91.7024V1.0908H100.123V35.9999H91.7024V21.9715H77.9467V35.9999H69.5092Z" fill="white"/>
<path d="M105.415 35.9999V1.0908H119.836C122.45 1.0908 124.705 1.56239 126.603 2.50557C128.512 3.43739 129.984 4.7783 131.018 6.5283C132.052 8.26693 132.569 10.3294 132.569 12.7158C132.569 15.1363 132.04 17.1931 130.984 18.8863C129.927 20.5681 128.427 21.8522 126.484 22.7385C124.54 23.6135 122.239 24.051 119.58 24.051H110.461V17.4033H118.012C119.285 17.4033 120.347 17.2385 121.2 16.909C122.063 16.5681 122.717 16.0567 123.16 15.3749C123.603 14.6817 123.825 13.7953 123.825 12.7158C123.825 11.6363 123.603 10.7442 123.16 10.0397C122.717 9.32375 122.063 8.78966 121.2 8.43739C120.336 8.07375 119.273 7.89194 118.012 7.89194H113.853V35.9999H105.415ZM125.069 20.0453L133.762 35.9999H124.558L116.035 20.0453H125.069Z" fill="white"/>
<path d="M144.748 35.9999H135.68L147.458 1.0908H158.691L170.469 35.9999H161.401L153.202 9.88625H152.93L144.748 35.9999ZM143.538 22.2613H162.492V28.6703H143.538V22.2613Z" fill="white"/>
<path d="M174.228 35.9999V1.0908H198.058V7.94307H182.665V15.1022H196.54V21.9715H182.665V35.9999H174.228Z" fill="white"/>
<path d="M212.619 35.9999V1.0908H221.056V15.8522H221.516L233.056 1.0908H242.994L230.619 16.6703L243.215 35.9999H233.124L224.431 22.2783L221.056 26.5397V35.9999H212.619Z" fill="white"/>
<path d="M246.322 35.9999V1.0908H254.759V15.1022H268.515V1.0908H276.935V35.9999H268.515V21.9715H254.759V35.9999H246.322Z" fill="white"/>
<path d="M289.779 35.9999H280.711L292.489 1.0908H303.722L315.501 35.9999H306.433L298.234 9.88625H297.961L289.779 35.9999ZM288.569 22.2613H307.523V28.6703H288.569V22.2613Z" fill="white"/>
<path d="M313.758 7.94307V1.0908H343.263V7.94307H332.678V35.9999H324.36V7.94307H313.758Z" fill="white"/>
<path d="M346.242 7.94307V1.0908H375.748V7.94307H365.163V35.9999H356.844V7.94307H346.242Z" fill="white"/>
<path d="M383.06 35.9999H373.992L385.771 1.0908H397.004L408.782 35.9999H399.714L391.515 9.88625H391.242L383.06 35.9999ZM381.85 22.2613H400.805V28.6703H381.85V22.2613Z" fill="white"/>
<path d="M412.54 35.9999V1.0908H427.097C429.711 1.0908 431.898 1.46012 433.66 2.19875C435.433 2.93739 436.762 3.97148 437.648 5.30103C438.546 6.63057 438.995 8.17034 438.995 9.92034C438.995 11.2499 438.717 12.4374 438.16 13.4828C437.603 14.5169 436.836 15.3749 435.859 16.0567C434.881 16.7385 433.751 17.2158 432.467 17.4885V17.8294C433.876 17.8976 435.177 18.2783 436.37 18.9715C437.575 19.6647 438.54 20.6306 439.268 21.8692C439.995 23.0965 440.359 24.551 440.359 26.2328C440.359 28.1078 439.881 29.784 438.927 31.2613C437.972 32.7272 436.592 33.8863 434.785 34.7385C432.978 35.5794 430.785 35.9999 428.205 35.9999H412.54ZM420.978 29.1988H426.194C428.023 29.1988 429.37 28.8522 430.234 28.159C431.109 27.4658 431.546 26.4999 431.546 25.2613C431.546 24.3635 431.336 23.5908 430.915 22.9431C430.495 22.284 429.898 21.7783 429.126 21.426C428.353 21.0624 427.427 20.8806 426.347 20.8806H420.978V29.1988ZM420.978 15.4431H425.648C426.569 15.4431 427.387 15.2897 428.103 14.9828C428.819 14.676 429.376 14.2328 429.773 13.6533C430.183 13.0738 430.387 12.3749 430.387 11.5567C430.387 10.3863 429.972 9.4658 429.143 8.79534C428.313 8.12489 427.194 7.78966 425.785 7.78966H420.978V15.4431Z" fill="white"/>
</svg>
