<svg width="1128" height="628" viewBox="0 0 1128 628" fill="none" xmlns="http://www.w3.org/2000/svg">
<g filter="url(#filter0_f_26_5893)">
<path d="M437.698 155.365C437.67 155.382 437.642 155.4 437.615 155.418L310.622 236.603L226 393.625C315.653 407.49 508.258 430.313 561.454 410.69C627.948 386.161 590.55 372.366 559.386 335.362C528.222 298.358 506.409 345.989 460.254 329.069C414.099 312.149 507.224 317.155 479.44 276.675C451.655 236.196 465.686 267.491 530.966 214.349C596.245 161.207 541.021 205.873 485.007 183.23C440.636 165.293 434.906 157.264 437.615 155.418L437.698 155.365Z" fill="#707EFA"/>
<path d="M682.936 155C682.965 155.017 682.993 155.035 683.021 155.053L812.601 235.677L902.24 392.319C813.036 406.574 621.175 430.237 567.355 410.848C500.081 386.611 537.035 372.654 567.014 335.516C596.992 298.379 620.327 345.91 665.937 328.79C711.548 311.67 618.589 317.082 645.077 276.484C671.565 235.886 658.536 267.24 591.561 214.387C524.587 161.534 581.235 205.956 636.522 183.069C680.315 164.941 685.788 156.887 683.021 155.053L682.936 155Z" fill="#FDA1B9"/>
<g style="mix-blend-mode:color-burn">
<path d="M552.916 410.069C504.867 410.069 465.916 360.85 465.916 300.136C465.916 239.422 504.867 190.204 552.916 190.204C600.965 190.204 639.916 239.422 639.916 300.136C639.916 360.85 600.965 410.069 552.916 410.069Z" fill="#FFB85C"/>
</g>
</g>
<defs>
<filter id="filter0_f_26_5893" x="76" y="5" width="976.239" height="563.319" filterUnits="userSpaceOnUse" color-interpolation-filters="sRGB">
<feFlood flood-opacity="0" result="BackgroundImageFix"/>
<feBlend mode="normal" in="SourceGraphic" in2="BackgroundImageFix" result="shape"/>
<feGaussianBlur stdDeviation="75" result="effect1_foregroundBlur_26_5893"/>
</filter>
</defs>
</svg>
